<?xml version="1.0" encoding="UTF-8" standalone="no" ?>
<!DOCTYPE svg PUBLIC "-//W3C//DTD SVG 1.1//EN" "http://www.w3.org/Graphics/SVG/1.1/DTD/svg11.dtd">
<svg xmlns="http://www.w3.org/2000/svg" xmlns:xlink="http://www.w3.org/1999/xlink" version="1.1" width="140.20159999999998" height="160.5316" xml:space="preserve">
<desc>Created with Fabric.js 1.6.0-rc.1</desc>
<defs></defs>
<g style="stroke: none; stroke-width: 1; stroke-dasharray: none; stroke-linecap: butt; stroke-linejoin: miter; stroke-miterlimit: 10; fill: none; fill-rule: nonzero; opacity: 1;" transform="translate(9.999999999999993 10) scale(0.38 0.38)" >
  <rect x="200.27" y="128.69" rx="0" ry="0" width="40.42" height="69.23" style="stroke: none; stroke-width: 1; stroke-dasharray: none; stroke-linecap: butt; stroke-linejoin: miter; stroke-miterlimit: 10; fill: #333E48; fill-rule: nonzero; opacity: 1;" transform=" matrix(1 0 0 1 0 0) "/>
  <path d="M 196.547 144.209 c -8.756 0 -15.855 -7.098 -15.855 -15.855 c 0 -8.757 7.099 -15.855 15.855 -15.855 h 47.863 c 8.757 0 15.855 7.098 15.855 15.855 s -7.098 15.855 -15.855 15.855 H 196.547 z" style="stroke: none; stroke-width: 1; stroke-dasharray: none; stroke-linecap: butt; stroke-linejoin: miter; stroke-miterlimit: 10; fill: #333E48; fill-rule: nonzero; opacity: 1;" transform=" matrix(1 0 0 1 0 0) " stroke-linecap="round" />
  <path d="M 125.636 107.212 c 0 15.167 12.409 27.577 27.577 27.577 h 134.533 c 15.168 0 27.577 -12.409 27.577 -27.577 V 27.577 C 315.323 12.41 302.913 0 287.746 0 H 153.213 c -15.167 0 -27.577 12.41 -27.577 27.577 V 107.212 z" style="stroke: none; stroke-width: 1; stroke-dasharray: none; stroke-linecap: butt; stroke-linejoin: miter; stroke-miterlimit: 10; fill: #3E4A57; fill-rule: nonzero; opacity: 1;" transform=" matrix(1 0 0 1 0 0) " stroke-linecap="round" />
  <path d="M 109.702 107.212 c 0 15.167 12.41 27.577 27.577 27.577 h 134.534 c 15.167 0 27.577 -12.409 27.577 -27.577 V 27.577 C 299.389 12.41 286.979 0 271.812 0 H 137.279 c -15.167 0 -27.577 12.41 -27.577 27.577 C 109.702 27.577 109.702 107.212 109.702 107.212 z" style="stroke: none; stroke-width: 1; stroke-dasharray: none; stroke-linecap: butt; stroke-linejoin: miter; stroke-miterlimit: 10; fill: #1ba94d; fill-rule: nonzero; opacity: 1;" transform=" matrix(1 0 0 1 0 0) " stroke-linecap="round" />
  <path d="M 78.79 245.489 c -8.757 0 -15.855 -7.098 -15.855 -15.854 c 0 -8.757 7.098 -15.855 15.855 -15.855 h 186.281 c 8.757 0 15.856 7.098 15.856 15.855 c 0 8.757 -7.099 15.854 -15.856 15.854 H 78.79 z" style="stroke: none; stroke-width: 1; stroke-dasharray: none; stroke-linecap: butt; stroke-linejoin: miter; stroke-miterlimit: 10; fill: #333E48; fill-rule: nonzero; opacity: 1;" transform=" matrix(1 0 0 1 0 0) " stroke-linecap="round" />
  <path d="M 69.355 229.634 c -8.756 0 -15.855 -7.098 -15.855 -15.855 c 0 -8.757 7.099 -15.855 15.855 -15.855 h 150.141 c 8.757 0 15.855 7.098 15.855 15.855 c 0 8.757 -7.098 15.855 -15.855 15.855 H 69.355 z" style="stroke: none; stroke-width: 1; stroke-dasharray: none; stroke-linecap: butt; stroke-linejoin: miter; stroke-miterlimit: 10; fill: #1ba94d; fill-rule: nonzero; opacity: 1;" transform=" matrix(1 0 0 1 0 0) " stroke-linecap="round" />
  <path d="M 214.899 229.634 c -8.757 0 -15.854 -7.098 -15.854 -15.855 c 0 -8.757 7.098 -15.855 15.854 -15.855 h 59.443 c 8.757 0 15.855 7.098 15.855 15.855 c 0 8.757 -7.099 15.855 -15.855 15.855 H 214.899 z" style="stroke: none; stroke-width: 1; stroke-dasharray: none; stroke-linecap: butt; stroke-linejoin: miter; stroke-miterlimit: 10; fill: #3E4A57; fill-rule: nonzero; opacity: 1;" transform=" matrix(1 0 0 1 0 0) " stroke-linecap="round" />
  <rect x="170.63" y="245.49" rx="0" ry="0" width="25.74" height="79.21" style="stroke: none; stroke-width: 1; stroke-dasharray: none; stroke-linecap: butt; stroke-linejoin: miter; stroke-miterlimit: 10; fill: #333E48; fill-rule: nonzero; opacity: 1;" transform=" matrix(1 0 0 1 0 0) "/>
  <path d="M 207.197 271.412 c 1.393 -2.856 4.316 -4.829 7.707 -4.829 h 21.138 c 4.738 0 8.579 3.841 8.579 8.579 s -3.841 8.579 -8.579 8.579 h -21.138 c -3.392 0 -6.314 -1.973 -7.707 -4.829 h -16.036 v -7.5 H 207.197 z" style="stroke: none; stroke-width: 1; stroke-dasharray: none; stroke-linecap: butt; stroke-linejoin: miter; stroke-miterlimit: 10; fill: #333E48; fill-rule: nonzero; opacity: 1;" transform=" matrix(1 0 0 1 0 0) " stroke-linecap="round" />
  <path d="M 114.03 344.922 c 0 -11.169 9.054 -20.223 20.223 -20.223 h 101.093 c 11.169 0 20.223 9.054 20.223 20.223 H 114.03 z" style="stroke: none; stroke-width: 1; stroke-dasharray: none; stroke-linecap: butt; stroke-linejoin: miter; stroke-miterlimit: 10; fill: #333E48; fill-rule: nonzero; opacity: 1;" transform=" matrix(1 0 0 1 0 0) " stroke-linecap="round" />
  <circle cx="255.57000000000002" cy="352.58" r="16.24" style="stroke: none; stroke-width: 1; stroke-dasharray: none; stroke-linecap: butt; stroke-linejoin: miter; stroke-miterlimit: 10; fill: #1ba94d; fill-rule: nonzero; opacity: 1;" transform="  matrix(1 0 0 1 0 0) "/>
  <circle cx="255.571" cy="352.581" r="7.661" style="stroke: none; stroke-width: 1; stroke-dasharray: none; stroke-linecap: butt; stroke-linejoin: miter; stroke-miterlimit: 10; fill: #333E48; fill-rule: nonzero; opacity: 1;" transform="  matrix(1 0 0 1 0 0) "/>
  <circle cx="114.03" cy="352.58" r="16.24" style="stroke: none; stroke-width: 1; stroke-dasharray: none; stroke-linecap: butt; stroke-linejoin: miter; stroke-miterlimit: 10; fill: #1ba94d; fill-rule: nonzero; opacity: 1;" transform="  matrix(1 0 0 1 0 0) "/>
  <circle cx="114.031" cy="352.581" r="7.661" style="stroke: none; stroke-width: 1; stroke-dasharray: none; stroke-linecap: butt; stroke-linejoin: miter; stroke-miterlimit: 10; fill: #333E48; fill-rule: nonzero; opacity: 1;" transform="  matrix(1 0 0 1 0 0) "/>
  <path d="M 187.737 365.146 c 0 2.022 1.654 3.677 3.677 3.677 h 1.279 c 2.022 0 3.677 -1.654 3.677 -3.677 V 340.02 c 0 -2.022 -1.654 -3.677 -3.677 -3.677 h -1.279 c -2.023 0 -3.677 1.654 -3.677 3.677 V 365.146 z" style="stroke: none; stroke-width: 1; stroke-dasharray: none; stroke-linecap: butt; stroke-linejoin: miter; stroke-miterlimit: 10; fill: #1ba94d; fill-rule: nonzero; opacity: 1;" transform=" matrix(1 0 0 1 0 0) " stroke-linecap="round" />
  <path d="M 181.863 365.146 c 0 2.022 -1.654 3.677 -3.677 3.677 h -1.279 c -2.022 0 -3.677 -1.654 -3.677 -3.677 V 340.02 c 0 -2.022 1.654 -3.677 3.677 -3.677 h 1.279 c 2.022 0 3.677 1.654 3.677 3.677 V 365.146 z" style="stroke: none; stroke-width: 1; stroke-dasharray: none; stroke-linecap: butt; stroke-linejoin: miter; stroke-miterlimit: 10; fill: #1ba94d; fill-rule: nonzero; opacity: 1;" transform=" matrix(1 0 0 1 0 0) " stroke-linecap="round" />
  <rect x="181.86" y="344.92" rx="0" ry="0" width="5.87" height="15.32" style="stroke: none; stroke-width: 1; stroke-dasharray: none; stroke-linecap: butt; stroke-linejoin: miter; stroke-miterlimit: 10; fill: #333E48; fill-rule: nonzero; opacity: 1;" transform=" matrix(1 0 0 1 0 0) "/>
</g>
</svg>