<?xml version="1.0" encoding="UTF-8" standalone="no" ?>
<!DOCTYPE svg PUBLIC "-//W3C//DTD SVG 1.1//EN" "http://www.w3.org/Graphics/SVG/1.1/DTD/svg11.dtd">
<svg xmlns="http://www.w3.org/2000/svg" xmlns:xlink="http://www.w3.org/1999/xlink" version="1.1" width="303.7484" height="344.779" xml:space="preserve">
<desc>Created with Fabric.js 1.6.0-rc.1</desc>
<defs></defs>
<g style="stroke: none; stroke-width: 1; stroke-dasharray: none; stroke-linecap: butt; stroke-linejoin: miter; stroke-miterlimit: 10; fill: none; fill-rule: nonzero; opacity: 1;" transform="translate(10 10) scale(0.86 0.86)" >
  <path d="M 328.935 354.585 c 0 12.138 -9.932 22.069 -22.07 22.069 H 74.569 c -12.138 0 -22.069 -9.932 -22.069 -22.069 V 68.047 c 0 -12.138 9.932 -22.069 22.069 -22.069 h 232.295 c 12.139 0 22.07 9.932 22.07 22.069 v 286.538 H 328.935 z" style="stroke: none; stroke-width: 1; stroke-dasharray: none; stroke-linecap: butt; stroke-linejoin: miter; stroke-miterlimit: 10; fill: #A88D63; fill-rule: nonzero; opacity: 1;" transform=" matrix(1 0 0 1 0 0) " stroke-linecap="round" />
  <path d="M 242.18 30.623 h -32.862 c 1.504 -2.892 2.367 -6.171 2.367 -9.657 C 211.686 9.388 202.296 0 190.716 0 c -11.581 0 -20.966 9.388 -20.966 20.966 c 0 3.486 0.863 6.766 2.368 9.657 h -32.862 c -9.105 0 -16.553 7.447 -16.553 16.552 v 24.552 H 258.73 V 47.175 C 258.73 38.07 251.281 30.623 242.18 30.623 z M 190.716 28.611 c -4.222 0 -7.645 -3.423 -7.645 -7.646 c 0 -4.22 3.423 -7.643 7.645 -7.643 c 4.224 0 7.645 3.423 7.645 7.643 C 198.36 25.188 194.939 28.611 190.716 28.611 z" style="stroke: none; stroke-width: 1; stroke-dasharray: none; stroke-linecap: butt; stroke-linejoin: miter; stroke-miterlimit: 10; fill: #3E4A57; fill-rule: nonzero; opacity: 1;" transform=" matrix(1 0 0 1 0 0) " stroke-linecap="round" />
  <path d="M 324.153 354.585 c 0 12.138 -9.932 22.069 -22.07 22.069 H 69.788 c -12.139 0 -22.07 -9.932 -22.07 -22.069 V 68.047 c 0 -12.138 9.932 -22.069 22.07 -22.069 h 232.295 c 12.139 0 22.07 9.932 22.07 22.069 V 354.585 z" style="stroke: none; stroke-width: 1; stroke-dasharray: none; stroke-linecap: butt; stroke-linejoin: miter; stroke-miterlimit: 10; fill: #1ba94d; fill-rule: nonzero; opacity: 1;" transform=" matrix(1 0 0 1 0 0) " stroke-linecap="round" />
  <rect x="70.8" y="65.23" rx="0" ry="0" width="230.26" height="279.89" style="stroke: none; stroke-width: 1; stroke-dasharray: none; stroke-linecap: butt; stroke-linejoin: miter; stroke-miterlimit: 10; fill: #fffff3; fill-rule: nonzero; opacity: 1;" transform=" matrix(1 0 0 1 0 0) "/>
  <path d="M 237.396 30.623 h -32.861 c 1.504 -2.892 2.367 -6.171 2.367 -9.657 C 206.902 9.388 197.516 0 185.938 0 c -11.581 0 -20.969 9.388 -20.969 20.966 c 0 3.486 0.863 6.766 2.367 9.657 h -32.862 c -9.102 0 -16.553 7.447 -16.553 16.552 v 24.552 h 136.029 V 47.175 C 253.949 38.07 246.501 30.623 237.396 30.623 z M 185.938 28.611 c -4.226 0 -7.646 -3.423 -7.646 -7.646 c 0 -4.22 3.421 -7.643 7.646 -7.643 c 4.222 0 7.646 3.423 7.646 7.643 C 193.582 25.188 190.158 28.611 185.938 28.611 z" style="stroke: none; stroke-width: 1; stroke-dasharray: none; stroke-linecap: butt; stroke-linejoin: miter; stroke-miterlimit: 10; fill: #5C6670; fill-rule: nonzero; opacity: 1;" transform=" matrix(1 0 0 1 0 0) " stroke-linecap="round" />
  <path d="M 185.938 4.966 c -8.839 0 -16.003 7.165 -16.003 16 c 0 8.839 7.164 16.003 16.003 16.003 c 8.838 0 16 -7.164 16 -16.003 C 201.938 12.131 194.774 4.966 185.938 4.966 z M 185.938 28.611 c -4.226 0 -7.646 -3.423 -7.646 -7.646 c 0 -4.22 3.421 -7.643 7.646 -7.643 c 4.222 0 7.646 3.423 7.646 7.643 C 193.582 25.188 190.158 28.611 185.938 28.611 z" style="stroke: none; stroke-width: 1; stroke-dasharray: none; stroke-linecap: butt; stroke-linejoin: miter; stroke-miterlimit: 10; fill: #1ba94d; fill-rule: nonzero; opacity: 1;" transform=" matrix(1 0 0 1 0 0) " stroke-linecap="round" />
  <line x1="-58.852000000000004" y1="0" x2="58.852000000000004" y2="0" style="stroke: #1ba94d; stroke-width: 2; stroke-dasharray: none; stroke-linecap: round; stroke-linejoin: round; stroke-miterlimit: 10; fill: none; fill-rule: nonzero; opacity: 1;" transform=" matrix(1 0 0 1 0 0) "/>
  <line x1="-35.4315" y1="0" x2="35.4315" y2="0" style="stroke: #1ba94d; stroke-width: 2; stroke-dasharray: none; stroke-linecap: round; stroke-linejoin: round; stroke-miterlimit: 10; fill: none; fill-rule: nonzero; opacity: 1;" transform=" matrix(1 0 0 1 0 0) "/>
  <rect x="92.88" y="102.16" rx="0" ry="0" width="183.18" height="11.13" style="stroke: none; stroke-width: 1; stroke-dasharray: none; stroke-linecap: butt; stroke-linejoin: miter; stroke-miterlimit: 10; fill: #1ba94d; fill-rule: nonzero; opacity: 1;" transform=" matrix(1 0 0 1 0 0) "/>
  <rect x="92.88" y="128.64" rx="0" ry="0" width="156.69" height="11.13" style="stroke: none; stroke-width: 1; stroke-dasharray: none; stroke-linecap: butt; stroke-linejoin: miter; stroke-miterlimit: 10; fill: #1ba94d; fill-rule: nonzero; opacity: 1;" transform=" matrix(1 0 0 1 0 0) "/>
  <rect x="92.88" y="155.13" rx="0" ry="0" width="183.18" height="11.13" style="stroke: none; stroke-width: 1; stroke-dasharray: none; stroke-linecap: butt; stroke-linejoin: miter; stroke-miterlimit: 10; fill: #1ba94d; fill-rule: nonzero; opacity: 1;" transform=" matrix(1 0 0 1 0 0) "/>
  <rect x="92.88" y="181.61" rx="0" ry="0" width="156.69" height="11.13" style="stroke: none; stroke-width: 1; stroke-dasharray: none; stroke-linecap: butt; stroke-linejoin: miter; stroke-miterlimit: 10; fill: #1ba94d; fill-rule: nonzero; opacity: 1;" transform=" matrix(1 0 0 1 0 0) "/>
  <rect x="92.88" y="208.09" rx="0" ry="0" width="183.18" height="11.13" style="stroke: none; stroke-width: 1; stroke-dasharray: none; stroke-linecap: butt; stroke-linejoin: miter; stroke-miterlimit: 10; fill: #1ba94d; fill-rule: nonzero; opacity: 1;" transform=" matrix(1 0 0 1 0 0) "/>
  <rect x="92.88" y="234.58" rx="0" ry="0" width="156.69" height="11.13" style="stroke: none; stroke-width: 1; stroke-dasharray: none; stroke-linecap: butt; stroke-linejoin: miter; stroke-miterlimit: 10; fill: #1ba94d; fill-rule: nonzero; opacity: 1;" transform=" matrix(1 0 0 1 0 0) "/>
  <rect x="92.88" y="261.06" rx="0" ry="0" width="183.18" height="11.13" style="stroke: none; stroke-width: 1; stroke-dasharray: none; stroke-linecap: butt; stroke-linejoin: miter; stroke-miterlimit: 10; fill: #1ba94d; fill-rule: nonzero; opacity: 1;" transform=" matrix(1 0 0 1 0 0) "/>
</g>
</svg>