<?xml version="1.0" encoding="UTF-8" standalone="no" ?>
<!DOCTYPE svg PUBLIC "-//W3C//DTD SVG 1.1//EN" "http://www.w3.org/Graphics/SVG/1.1/DTD/svg11.dtd">
<svg xmlns="http://www.w3.org/2000/svg" xmlns:xlink="http://www.w3.org/1999/xlink" version="1.1" width="217.09560000000002" height="238.9239" xml:space="preserve">
<desc>Created with Fabric.js 1.6.0-rc.1</desc>
<defs></defs>
<g style="stroke: none; stroke-width: 1; stroke-dasharray: none; stroke-linecap: butt; stroke-linejoin: miter; stroke-miterlimit: 10; fill: none; fill-rule: nonzero; opacity: 1;" transform="translate(10 10) scale(3.77 3.77)" >
  <path d="M 30.797 10 v 15.5 c 0 0.828 -0.672 1.5 -1.5 1.5 h 0 c -0.828 0 -1.5 -0.672 -1.5 -1.5 V 3 c 0 -1.657 -1.343 -3 -3 -3 h 0 c -1.657 0 -3 1.343 -3 3 v 22.5 c 0 0.828 -0.672 1.5 -1.5 1.5 h 0 c -0.828 0 -1.5 -0.672 -1.5 -1.5 v -18 c 0 -1.381 -1.119 -2.5 -2.5 -2.5 h 0 c -1.381 0 -2.5 1.119 -2.5 2.5 v 20 c 0 0.828 -0.672 1.5 -1.5 1.5 h 0 c -0.828 0 -1.5 -0.672 -1.5 -1.5 V 15 c 0 -1.381 -1.119 -2.5 -2.5 -2.5 h -0.01 c -1.381 0 -2.5 1.119 -2.5 2.5 v 27.128 c 0.836 12.08 7.46 14.938 16.81 14.938 c 6.667 0 12.416 -3.409 15.177 -8.351 c 1.161 -1.874 8.194 -12.825 8.798 -13.969 c 0.704 -1.334 1.735 -2.94 3.035 -4.002 c 0.693 -0.566 1.154 -1.318 1.581 -2.105 c 0.109 -0.202 0.426 -2.646 -1.391 -2.639 c -1.576 0.006 -3.375 0.67 -4.68 1.552 c -1.463 0.989 -3.362 2.696 -4.984 5.531 c -0.527 0.922 -1.471 1.564 -2.532 1.588 c -1.001 0.023 -0.742 -0.468 -0.804 -2.536 l 0 0 v -2.988 V 10 c 0 -1.657 -1.343 -3 -3 -3 h 0 C 32.14 7 30.797 8.343 30.797 10 z" style="stroke: none; stroke-width: 1; stroke-dasharray: none; stroke-linecap: butt; stroke-linejoin: miter; stroke-miterlimit: 10; fill: #1ba94d; fill-rule: nonzero; opacity: 1;" transform=" matrix(1 0 0 1 0 0) " stroke-linecap="round" />
</g>
</svg>